<svg height="512" viewBox="0 0 512 512" width="512" xmlns="http://www.w3.org/2000/svg" xmlns:xlink="http://www.w3.org/1999/xlink"><linearGradient id="linear-gradient" gradientUnits="userSpaceOnUse" x1="6.45" x2="514.65" y1="6.45" y2="514.65"><stop offset="0" stop-color="#d20aef"/><stop offset=".37" stop-color="#890fd1"/><stop offset=".8" stop-color="#3715b0"/><stop offset="1" stop-color="#1717a3"/></linearGradient><g id="Layer_2" data-name="Layer 2"><g id="Layer_1-2" data-name="Layer 1"><g id="B"><rect fill="url(#linear-gradient)" height="512" rx="150" width="512"/><path d="m389.89 314.78a90.33 90.33 0 0 1 -90.36 90.36 93.09 93.09 0 0 1 -10.25-.58 92.59 92.59 0 0 1 -10.23.58h-156.94v-181.33h162.32a27.13 27.13 0 0 0 1.67-52.81h-100.85v.09h-63.14v-64.23h156.94a90.69 90.69 0 0 1 78.36 45.32c.25.43.5.87.74 1.32a90.47 90.47 0 0 1 -.2 87.78c-.12.24-.25.47-.39.7l-.06.1c-.44.74-.87 1.47-1.32 2.2 1.13.91 2.22 1.83 3.3 2.77a90.34 90.34 0 0 1 30.44 67.65zm-204.64 26.28h121a27.13 27.13 0 0 0 -.66-52.71h-120.34z" fill="#fff"/></g></g></g></svg>